<svg width="32" height="32" viewBox="0 0 32 32" fill="none" xmlns="http://www.w3.org/2000/svg">
<path fill-rule="evenodd" clip-rule="evenodd" d="M16.0007 4.00016C9.37323 4.00016 4.00065 9.37275 4.00065 16.0002C4.00065 22.6276 9.37323 28.0002 16.0007 28.0002C22.6281 28.0002 28.0006 22.6276 28.0006 16.0002C28.0006 9.37275 22.6281 4.00016 16.0007 4.00016ZM1.33398 16.0002C1.33398 7.89999 7.90047 1.3335 16.0007 1.3335C24.1008 1.3335 30.6673 7.89999 30.6673 16.0002C30.6673 24.1003 24.1008 30.6668 16.0007 30.6668C7.90047 30.6668 1.33398 24.1003 1.33398 16.0002Z" fill="black"/>
<path fill-rule="evenodd" clip-rule="evenodd" d="M20.9422 11.057C21.4629 11.5777 21.4629 12.4219 20.9422 12.9426L12.9422 20.9426C12.4215 21.4633 11.5772 21.4633 11.0565 20.9426C10.5358 20.4219 10.5358 19.5777 11.0565 19.057L19.0565 11.057C19.5772 10.5363 20.4215 10.5363 20.9422 11.057Z" fill="black"/>
<path fill-rule="evenodd" clip-rule="evenodd" d="M11.0565 11.057C11.5772 10.5363 12.4215 10.5363 12.9422 11.057L20.9422 19.057C21.4629 19.5777 21.4629 20.4219 20.9422 20.9426C20.4215 21.4633 19.5772 21.4633 19.0565 20.9426L11.0565 12.9426C10.5358 12.4219 10.5358 11.5777 11.0565 11.057Z" fill="black"/>
</svg>
