<svg width="42" height="42" viewBox="0 0 42 42" fill="none" xmlns="http://www.w3.org/2000/svg">
<path fillRule="evenodd" clipRule="evenodd" d="M21 5.25C12.3015 5.25 5.25 12.3015 5.25 21C5.25 29.6985 12.3015 36.75 21 36.75C29.6985 36.75 36.75 29.6985 36.75 21C36.75 12.3015 29.6985 5.25 21 5.25ZM1.75 21C1.75 10.3685 10.3685 1.75 21 1.75C31.6315 1.75 40.25 10.3685 40.25 21C40.25 31.6315 31.6315 40.25 21 40.25C10.3685 40.25 1.75 31.6315 1.75 21Z" fill="black"/>
<path fillRule="evenodd" clipRule="evenodd" d="M27.4874 14.5126C28.1709 15.196 28.1709 16.304 27.4874 16.9874L16.9874 27.4874C16.304 28.1709 15.196 28.1709 14.5126 27.4874C13.8291 26.804 13.8291 25.696 14.5126 25.0126L25.0126 14.5126C25.696 13.8291 26.804 13.8291 27.4874 14.5126Z" fill="black"/>
<path fillRule="evenodd" clipRule="evenodd" d="M14.5126 14.5126C15.196 13.8291 16.304 13.8291 16.9874 14.5126L27.4874 25.0126C28.1709 25.696 28.1709 26.804 27.4874 27.4874C26.804 28.1709 25.696 28.1709 25.0126 27.4874L14.5126 16.9874C13.8291 16.304 13.8291 15.196 14.5126 14.5126Z" fill="black"/>
</svg>
