<svg width="37" height="35" viewBox="0 0 37 35" fill="none" xmlns="http://www.w3.org/2000/svg">
<path fill-rule="evenodd" clip-rule="evenodd" d="M24.3122 12.5343C22.684 12.2231 20.9963 12.3828 19.4625 12.9933C17.9288 13.6039 16.6179 14.6378 15.6955 15.9643C14.7732 17.2908 14.2809 18.8504 14.2809 20.4458C14.2809 21.0398 13.7799 21.5213 13.1618 21.5213C12.5437 21.5213 12.0426 21.0398 12.0426 20.4458C12.0426 19.9177 12.0852 19.3928 12.1689 18.8754C11.944 18.8457 11.7167 18.8313 11.4888 18.8325L11.483 18.8325C10.1474 18.8325 8.86637 19.3424 7.92189 20.25C6.97742 21.1577 6.44682 22.3887 6.44682 23.6723C6.44682 24.956 6.97742 26.187 7.92189 27.0947C8.86637 28.0023 10.1474 28.5122 11.483 28.5122H22.6747C24.3348 28.5122 25.9576 28.0391 27.3379 27.1528C28.7183 26.2664 29.7941 25.0066 30.4294 23.5327C31.0647 22.0587 31.2309 20.4368 30.9071 18.8721C30.5832 17.3073 29.7838 15.87 28.6099 14.7419C27.436 13.6138 25.9404 12.8456 24.3122 12.5343ZM12.7481 16.7858C13.0297 16.0805 13.3932 15.4038 13.8344 14.7692C15.0027 13.089 16.6632 11.7794 18.6059 11.006C20.5487 10.2327 22.6864 10.0304 24.7489 10.4246C26.8113 10.8188 28.7057 11.792 30.1926 13.2209C31.6795 14.6499 32.6921 16.4704 33.1024 18.4524C33.5126 20.4344 33.3021 22.4888 32.4974 24.3558C31.6927 26.2228 30.3299 27.8186 28.5815 28.9413C26.8331 30.064 24.7775 30.6633 22.6747 30.6633H11.483C9.55371 30.6633 7.7034 29.9267 6.33916 28.6157C4.97492 27.3046 4.2085 25.5265 4.2085 23.6723C4.2085 21.8182 4.97492 20.0401 6.33916 18.729C7.70273 17.4186 9.5519 16.6822 11.4802 16.6814" fill="black"/>
<path fill-rule="evenodd" clip-rule="evenodd" d="M11.2172 3.93967C11.8257 3.8356 12.4068 4.22531 12.5151 4.81011L13.1027 7.98291C13.211 8.56772 12.8055 9.12617 12.1969 9.23025C11.5884 9.33432 11.0073 8.94461 10.899 8.35981L10.3114 5.18701C10.2031 4.6022 10.6087 4.04375 11.2172 3.93967Z" fill="black"/>
<path fill-rule="evenodd" clip-rule="evenodd" d="M3.9912 8.36089C4.34582 7.87438 5.0437 7.75627 5.54994 8.09707L8.30587 9.95235C8.81212 10.2931 8.93502 10.9638 8.5804 11.4503C8.22577 11.9368 7.5279 12.0549 7.02166 11.7141L4.26572 9.85886C3.75948 9.51806 3.63657 8.84739 3.9912 8.36089Z" fill="black"/>
<path fill-rule="evenodd" clip-rule="evenodd" d="M7.64675 15.4578C7.75504 16.0426 7.34952 16.6011 6.74099 16.7052L3.43947 17.2698C2.83093 17.3739 2.24982 16.9842 2.14153 16.3994C2.03323 15.8146 2.43875 15.2561 3.04728 15.152L6.34881 14.5874C6.95734 14.4833 7.53845 14.873 7.64675 15.4578Z" fill="black"/>
<path fill-rule="evenodd" clip-rule="evenodd" d="M19.5816 5.71755C20.0878 6.05835 20.2107 6.72901 19.8561 7.21552L17.9255 9.864C17.5709 10.3505 16.873 10.4686 16.3668 10.1278C15.8606 9.78702 15.7376 9.11636 16.0923 8.62985L18.0228 5.98137C18.3775 5.49487 19.0753 5.37675 19.5816 5.71755Z" fill="black"/>
<path fill-rule="evenodd" clip-rule="evenodd" d="M15.4743 9.6316C14.2314 9.08845 12.8247 9.00073 11.5192 9.38496C10.2137 9.76919 9.09947 10.5989 8.38624 11.7177C7.67335 12.8361 7.41031 14.1662 7.64657 15.4578C7.82616 16.4167 8.26639 17.313 8.92264 18.0556C9.32272 18.5084 9.26512 19.1871 8.79398 19.5716C8.32283 19.9561 7.61657 19.9007 7.21648 19.448C6.30419 18.4155 5.69239 17.1695 5.44318 15.8364L5.4425 15.8328L5.44251 15.8328C5.11094 14.0237 5.47908 12.1605 6.47759 10.5941C7.47611 9.02765 9.0361 7.86612 10.8638 7.3282C12.6915 6.79028 14.6608 6.91309 16.4008 7.6735C18.1408 8.43391 19.5315 9.77945 20.311 11.4567C20.5631 11.9991 20.3099 12.6351 19.7455 12.8774C19.1812 13.1196 18.5193 12.8763 18.2673 12.3339C17.7105 11.1358 16.7171 10.1747 15.4743 9.6316Z" fill="black"/>
</svg>
