<svg width="288" height="250" viewBox="0 0 288 250" fill="none" xmlns="http://www.w3.org/2000/svg">
<path d="M144 62.5C183.574 26.6541 243.501 25.4174 284.52 59.5999L288 62.5V250C246.647 217.622 188.763 216.847 146.557 248.106L144 250V62.5Z" fill="#FFFACD"/>
<path d="M0 62.5C39.5738 26.6541 99.5008 25.4174 140.52 59.5999L144 62.5V250C102.647 217.622 44.7627 216.847 2.55742 248.106L0 250V62.5Z" fill="#FFFACD"/>
<path d="M20 104.733C20 94.9395 27.9395 87 37.7333 87H75.8566C80.7535 87 84.7232 90.9697 84.7232 95.8667C84.7232 100.764 80.7535 104.733 75.8566 104.733H20Z" fill="#A7C7E7"/>
<path d="M20 145.267H75.8566C80.7535 145.267 84.7232 149.236 84.7232 154.133C84.7232 159.03 80.7535 163 75.8566 163H37.7333C27.9395 163 20 155.061 20 145.267Z" fill="#A7C7E7"/>
<path d="M20 104.733H35.5663V145.267H20V104.733Z" fill="#A7C7E7"/>
<rect x="51.952" y="104.733" width="15.5663" height="40.5333" fill="#A7C7E7"/>
<path d="M118.182 93.3848C118.182 89.8586 121.04 87 124.567 87H171.818C177.341 87 181.818 91.4772 181.818 97V99.7695H124.567C121.04 99.7695 118.182 96.911 118.182 93.3848Z" fill="#E7C7E7"/>
<rect x="170" y="107.115" width="7.41088" height="11.8182" transform="rotate(-90 170 107.115)" fill="#E7C7E7"/>
<path d="M118.182 117.115C118.182 111.592 122.659 107.115 128.182 107.115H181.818V109.885C181.818 115.408 177.341 119.885 171.818 119.885H118.182V117.115Z" fill="#E7C7E7"/>
<rect x="118.182" y="127.23" width="7.41088" height="11.8182" transform="rotate(-90 118.182 127.23)" fill="#E7C7E7"/>
<path d="M118.182 127.23H175.433C178.96 127.23 181.818 130.089 181.818 133.615C181.818 137.141 178.96 140 175.433 140H128.182C122.659 140 118.182 135.523 118.182 130V127.23Z" fill="#E7C7E7"/>
<path d="M190.909 95.1846C190.909 90.6644 194.573 87 199.094 87H234.562C240.084 87 244.562 91.4772 244.562 97V103.369H199.094C194.573 103.369 190.909 99.7049 190.909 95.1846Z" fill="#A7C7E7"/>
<rect x="232.517" y="116.815" width="13.4462" height="12.0444" transform="rotate(-90 232.517 116.815)" fill="#A7C7E7"/>
<path d="M190.909 126.815C190.909 121.293 195.386 116.815 200.909 116.815H244.562V123.185C244.562 128.707 240.084 133.185 234.562 133.185H190.909V126.815Z" fill="#A7C7E7"/>
<rect x="190.909" y="146.631" width="13.4462" height="12.0444" transform="rotate(-90 190.909 146.631)" fill="#A7C7E7"/>
<path d="M190.909 146.631H236.377C240.897 146.631 244.562 150.295 244.562 154.815C244.562 159.336 240.897 163 236.377 163H200.909C195.386 163 190.909 158.523 190.909 153V146.631Z" fill="#A7C7E7"/>
<path d="M142.727 146C142.727 144.343 144.07 143 145.727 143H153.561C155.218 143 156.561 144.343 156.561 146V152H142.727V146Z" fill="#E7C7E7"/>
<rect x="118.182" y="152" width="63.6364" height="11" rx="5" fill="#E7C7E7"/>
<rect x="254.545" y="87" width="15.4545" height="76" rx="5" fill="#A7C7E7"/>
<path d="M93.6364 92C93.6364 89.2386 95.8749 87 98.6364 87H104.091C106.852 87 109.091 89.2386 109.091 92V158C109.091 160.761 106.852 163 104.091 163H98.6363C95.8749 163 93.6364 160.761 93.6364 158V92Z" fill="#A7C7E7"/>
<path d="M42.3333 205.892V179.106H237.889V205.892H42.3333Z" fill="#FFE064"/>
<path d="M32.3933 205.892C24.9964 205.892 19 199.896 19 192.499C19 185.102 24.9964 179.106 32.3933 179.106H40.1111V205.892H32.3933Z" fill="#FFA794"/>
<rect x="40.1111" y="205.892" width="26.7865" height="5" transform="rotate(-90 40.1111 205.892)" fill="#D9D9D9"/>
<path d="M268.972 192.517L238.02 205.905L238.069 179.075L268.972 192.517Z" fill="#4F4F4F"/>
</svg>
