<svg width="275" height="76" viewBox="0 0 275 76" fill="none" xmlns="http://www.w3.org/2000/svg">
<path d="M0 17.7333C0 7.93948 7.93948 0 17.7333 0H62.3289C67.2258 0 71.1955 3.96974 71.1955 8.86667C71.1955 13.7636 67.2258 17.7333 62.3289 17.7333H0Z" fill="#A7C7E7"/>
<path d="M0 58.2667H62.3289C67.2258 58.2667 71.1955 62.2364 71.1955 67.1333C71.1955 72.0303 67.2258 76 62.3289 76H17.7333C7.93949 76 0 68.0605 0 58.2667Z" fill="#A7C7E7"/>
<path d="M0 17.7333H17.123V58.2667H0V17.7333Z" fill="#A7C7E7"/>
<rect x="35.1472" y="17.7333" width="17.123" height="40.5333" fill="#A7C7E7"/>
<path d="M108 6.38476C108 2.85855 110.859 0 114.385 0H168C173.523 0 178 4.47715 178 10V12.7695H114.385C110.859 12.7695 108 9.91096 108 6.38476Z" fill="#E7C7E7"/>
<rect x="165" y="20.1152" width="7.41088" height="13" transform="rotate(-90 165 20.1152)" fill="#E7C7E7"/>
<path d="M108 30.1152C108 24.5924 112.477 20.1152 118 20.1152H178V22.8847C178 28.4076 173.523 32.8848 168 32.8848H108V30.1152Z" fill="#E7C7E7"/>
<rect x="108" y="40.2305" width="7.41088" height="13" transform="rotate(-90 108 40.2305)" fill="#E7C7E7"/>
<path d="M108 40.2305H171.615C175.141 40.2305 178 43.089 178 46.6152C178 50.1414 175.141 53 171.615 53H118C112.477 53 108 48.5228 108 43V40.2305Z" fill="#E7C7E7"/>
<path d="M188 8.18462C188 3.66438 191.664 0 196.185 0H237.018C242.541 0 247.018 4.47715 247.018 10V16.3692H196.185C191.664 16.3692 188 12.7049 188 8.18462Z" fill="#A7C7E7"/>
<rect x="233.769" y="29.8154" width="13.4462" height="13.2489" transform="rotate(-90 233.769 29.8154)" fill="#A7C7E7"/>
<path d="M188 39.8154C188 34.2925 192.477 29.8154 198 29.8154H247.018V36.1846C247.018 41.7074 242.541 46.1846 237.018 46.1846H188V39.8154Z" fill="#A7C7E7"/>
<rect x="188" y="59.6308" width="13.4462" height="13.2489" transform="rotate(-90 188 59.6308)" fill="#A7C7E7"/>
<path d="M188 59.6308H238.833C243.353 59.6308 247.018 63.2951 247.018 67.8154C247.018 72.3356 243.353 76 238.833 76H198C192.477 76 188 71.5228 188 66V59.6308Z" fill="#A7C7E7"/>
<path d="M135 59C135 57.3431 136.343 56 138 56H147.217C148.874 56 150.217 57.3431 150.217 59V65H135V59Z" fill="#E7C7E7"/>
<rect x="108" y="65" width="70" height="11" rx="5" fill="#E7C7E7"/>
<rect x="258" width="17" height="76" rx="5" fill="#A7C7E7"/>
<path d="M81 5C81 2.23858 83.2386 0 86 0H93C95.7614 0 98 2.23858 98 5V71C98 73.7614 95.7614 76 93 76H86C83.2386 76 81 73.7614 81 71V5Z" fill="#A7C7E7"/>
</svg>
