<svg width="37" height="35" viewBox="0 0 37 35" fill="none" xmlns="http://www.w3.org/2000/svg">
<path fill-rule="evenodd" clip-rule="evenodd" d="M22.9549 26.5381C23.4713 26.8644 23.6147 27.5313 23.2752 28.0276L19.5959 33.4052C19.2564 33.9016 18.5624 34.0394 18.0459 33.713C17.5295 33.3867 17.3861 32.7198 17.7257 32.2235L21.4049 26.8459C21.7445 26.3495 22.4384 26.2117 22.9549 26.5381Z" fill="black"/>
<path fill-rule="evenodd" clip-rule="evenodd" d="M19.5982 21.1607C20.1145 21.4873 20.2575 22.1543 19.9176 22.6504L15.4969 29.1036C15.1571 29.5997 14.463 29.7372 13.9468 29.4105C13.4305 29.0839 13.2875 28.4169 13.6274 27.9208L18.0481 21.4676C18.3879 20.9715 19.082 20.8341 19.5982 21.1607Z" fill="black"/>
<path fill-rule="evenodd" clip-rule="evenodd" d="M24.2155 5.00564C22.5873 4.69439 20.8996 4.85413 19.3658 5.46466C17.8321 6.07519 16.5212 7.10909 15.5989 8.43561C14.6765 9.76213 14.1843 11.3217 14.1843 12.9171C14.1843 13.5111 13.6832 13.9926 13.0651 13.9926C12.447 13.9926 11.9459 13.5111 11.9459 12.9171C11.9459 12.389 11.9885 11.8641 12.0723 11.3467C11.8473 11.317 11.62 11.3027 11.3921 11.3038L11.3864 11.3038C10.0507 11.3038 8.76969 11.8137 7.82521 12.7214C6.88074 13.629 6.35014 14.86 6.35014 16.1437C6.35014 17.4273 6.88074 18.6583 7.82521 19.566C8.76969 20.4736 10.0507 20.9835 11.3864 20.9835H22.578C24.2381 20.9835 25.8609 20.5104 27.2413 19.6241C28.6216 18.7377 29.6974 17.4779 30.3327 16.004C30.968 14.53 31.1343 12.9081 30.8104 11.3434C30.4865 9.77866 29.6871 8.34136 28.5132 7.21325C27.3393 6.08514 25.8437 5.31688 24.2155 5.00564ZM12.6514 9.25713C12.933 8.5518 13.2966 7.87512 13.7378 7.24055C14.906 5.56029 16.5665 4.25069 18.5093 3.47735C20.452 2.70401 22.5898 2.50167 24.6522 2.89592C26.7146 3.29016 28.609 4.26328 30.096 5.69222C31.5829 7.12117 32.5955 8.94175 33.0057 10.9237C33.4159 12.9058 33.2054 14.9601 32.4007 16.8272C31.596 18.6942 30.2332 20.2899 28.4848 21.4126C26.7364 22.5353 24.6808 23.1346 22.578 23.1346H11.3864C9.45703 23.1346 7.60672 22.398 6.24248 21.087C4.87824 19.7759 4.11182 17.9978 4.11182 16.1437C4.11182 14.2896 4.87824 12.5114 6.24248 11.2003C7.60605 9.88993 9.45522 9.15347 11.3835 9.15274" fill="black"/>
</svg>
