<svg width="37" height="35" viewBox="0 0 37 35" fill="none" xmlns="http://www.w3.org/2000/svg">
<path fill-rule="evenodd" clip-rule="evenodd" d="M23.9142 5.0497C22.286 4.73846 20.5983 4.8982 19.0646 5.50873C17.5308 6.11926 16.2199 7.15316 15.2976 8.47968C14.3753 9.8062 13.883 11.3658 13.883 12.9612C13.883 13.5551 13.3819 14.0367 12.7638 14.0367C12.1457 14.0367 11.6447 13.5551 11.6447 12.9612C11.6447 12.4331 11.6873 11.9081 11.771 11.3907C11.546 11.3611 11.3187 11.3467 11.0908 11.3478L11.0851 11.3479C9.7494 11.3479 8.46842 11.8578 7.52394 12.7654C6.57947 13.6731 6.04887 14.9041 6.04887 16.1877C6.04887 17.4713 6.57947 18.7024 7.52394 19.61C8.46842 20.5177 9.7494 21.0276 11.0851 21.0276H22.2767C23.9368 21.0276 25.5597 20.5545 26.94 19.6682C28.3203 18.7818 29.3962 17.522 30.0315 16.048C30.6668 14.5741 30.833 12.9522 30.5091 11.3875C30.1853 9.82273 29.3858 8.38543 28.2119 7.25732C27.0381 6.1292 25.5425 5.36095 23.9142 5.0497ZM12.3502 9.30119C12.6318 8.59587 12.9953 7.91919 13.4365 7.28462C14.6048 5.60436 16.2653 4.29476 18.208 3.52142C20.1507 2.74808 22.2885 2.54574 24.3509 2.93998C26.4133 3.33423 28.3078 4.30735 29.7947 5.73629C31.2816 7.16523 32.2942 8.98582 32.7044 10.9678C33.1147 12.9498 32.9041 15.0042 32.0994 16.8712C31.2947 18.7382 29.932 20.334 28.1835 21.4567C26.4351 22.5794 24.3795 23.1786 22.2767 23.1786H11.0851C9.15576 23.1786 7.30545 22.4421 5.94121 21.1311C4.57697 19.82 3.81055 18.0418 3.81055 16.1877C3.81055 14.3336 4.57697 12.5555 5.94121 11.2444C7.30478 9.934 9.15395 9.19754 11.0822 9.19681" fill="black"/>
<path d="M11.085 28.5563C12.0121 28.5563 12.7637 27.834 12.7637 26.943C12.7637 26.052 12.0121 25.3297 11.085 25.3297C10.1578 25.3297 9.40625 26.052 9.40625 26.943C9.40625 27.834 10.1578 28.5563 11.085 28.5563Z" fill="black"/>
<path d="M16.6812 30.7074C17.6083 30.7074 18.3599 29.9851 18.3599 29.0941C18.3599 28.2031 17.6083 27.4808 16.6812 27.4808C15.754 27.4808 15.0024 28.2031 15.0024 29.0941C15.0024 29.9851 15.754 30.7074 16.6812 30.7074Z" fill="black"/>
<path d="M23.396 28.5563C24.3232 28.5563 25.0748 27.834 25.0748 26.943C25.0748 26.052 24.3232 25.3297 23.396 25.3297C22.4689 25.3297 21.7173 26.052 21.7173 26.943C21.7173 27.834 22.4689 28.5563 23.396 28.5563Z" fill="black"/>
<path d="M9.96585 33.934C10.893 33.934 11.6446 33.2117 11.6446 32.3207C11.6446 31.4297 10.893 30.7074 9.96585 30.7074C9.03871 30.7074 8.28711 31.4297 8.28711 32.3207C8.28711 33.2117 9.03871 33.934 9.96585 33.934Z" fill="black"/>
<path d="M22.2769 33.934C23.204 33.934 23.9556 33.2117 23.9556 32.3207C23.9556 31.4297 23.204 30.7074 22.2769 30.7074C21.3497 30.7074 20.5981 31.4297 20.5981 32.3207C20.5981 33.2117 21.3497 33.934 22.2769 33.934Z" fill="black"/>
</svg>
