<svg width="36" height="35" viewBox="0 0 36 35" fill="none" xmlns="http://www.w3.org/2000/svg">
<path fill-rule="evenodd" clip-rule="evenodd" d="M17.9621 10.766C13.9445 10.766 10.6875 13.896 10.6875 17.757C10.6875 21.6179 13.9445 24.7479 17.9621 24.7479C21.9797 24.7479 25.2366 21.6179 25.2366 17.757C25.2366 13.896 21.9797 10.766 17.9621 10.766ZM8.44922 17.757C8.44922 12.708 12.7083 8.61499 17.9621 8.61499C23.2159 8.61499 27.475 12.708 27.475 17.757C27.475 22.8059 23.2159 26.8989 17.9621 26.8989C12.7083 26.8989 8.44922 22.8059 8.44922 17.757Z" fill="black"/>
<path fill-rule="evenodd" clip-rule="evenodd" d="M17.9624 1.62415C18.5805 1.62415 19.0816 2.10567 19.0816 2.69967V5.38849C19.0816 5.98248 18.5805 6.46401 17.9624 6.46401C17.3443 6.46401 16.8433 5.98248 16.8433 5.38849V2.69967C16.8433 2.10567 17.3443 1.62415 17.9624 1.62415Z" fill="black"/>
<path fill-rule="evenodd" clip-rule="evenodd" d="M6.09098 6.34883C6.52804 5.92881 7.23665 5.92881 7.67371 6.34883L9.64623 8.24444C10.0833 8.66446 10.0833 9.34545 9.64623 9.76547C9.20917 10.1855 8.50056 10.1855 8.0635 9.76547L6.09098 7.86985C5.65392 7.44983 5.65392 6.76885 6.09098 6.34883Z" fill="black"/>
<path fill-rule="evenodd" clip-rule="evenodd" d="M1.1748 17.757C1.1748 17.163 1.67587 16.6815 2.29397 16.6815H5.09187C5.70996 16.6815 6.21103 17.163 6.21103 17.757C6.21103 18.351 5.70996 18.8326 5.09187 18.8326H2.29397C1.67587 18.8326 1.1748 18.351 1.1748 17.757Z" fill="black"/>
<path fill-rule="evenodd" clip-rule="evenodd" d="M9.64623 25.7486C10.0833 26.1686 10.0833 26.8496 9.64623 27.2696L7.67371 29.1652C7.23665 29.5853 6.52804 29.5853 6.09098 29.1652C5.65392 28.7452 5.65392 28.0642 6.09098 27.6442L8.0635 25.7486C8.50056 25.3286 9.20917 25.3286 9.64623 25.7486Z" fill="black"/>
<path fill-rule="evenodd" clip-rule="evenodd" d="M17.9624 29.05C18.5805 29.05 19.0816 29.5316 19.0816 30.1256V32.8144C19.0816 33.4084 18.5805 33.8899 17.9624 33.8899C17.3443 33.8899 16.8433 33.4084 16.8433 32.8144V30.1256C16.8433 29.5316 17.3443 29.05 17.9624 29.05Z" fill="black"/>
<path fill-rule="evenodd" clip-rule="evenodd" d="M26.278 25.7486C26.715 25.3286 27.4237 25.3286 27.8607 25.7486L29.8332 27.6442C30.2703 28.0642 30.2703 28.7452 29.8332 29.1652C29.3962 29.5853 28.6876 29.5853 28.2505 29.1652L26.278 27.2696C25.8409 26.8496 25.8409 26.1686 26.278 25.7486Z" fill="black"/>
<path fill-rule="evenodd" clip-rule="evenodd" d="M29.7134 17.757C29.7134 17.163 30.2144 16.6815 30.8325 16.6815H33.6304C34.2485 16.6815 34.7496 17.163 34.7496 17.757C34.7496 18.351 34.2485 18.8326 33.6304 18.8326H30.8325C30.2144 18.8326 29.7134 18.351 29.7134 17.757Z" fill="black"/>
<path fill-rule="evenodd" clip-rule="evenodd" d="M29.8332 6.34883C30.2703 6.76885 30.2703 7.44983 29.8332 7.86985L27.8607 9.76547C27.4237 10.1855 26.715 10.1855 26.278 9.76547C25.8409 9.34545 25.8409 8.66446 26.278 8.24444L28.2505 6.34883C28.6876 5.92881 29.3962 5.92881 29.8332 6.34883Z" fill="black"/>
</svg>
