<svg width="37" height="35" viewBox="0 0 37 35" fill="none" xmlns="http://www.w3.org/2000/svg">
<path fill-rule="evenodd" clip-rule="evenodd" d="M21.8138 20.9835C22.632 20.983 23.4347 21.1979 24.1347 21.605C24.8348 22.0122 25.4054 22.596 25.7844 23.293C26.1635 23.99 26.3365 24.7735 26.2846 25.5583C26.2327 26.3432 25.958 27.0993 25.4902 27.7446C25.0225 28.3899 24.3796 28.8997 23.6315 29.2185C22.8834 29.5372 22.0587 29.6528 21.247 29.5527C20.4353 29.4526 19.6678 29.1406 19.0277 28.6506C18.3876 28.1606 17.8995 27.5113 17.6165 26.7734C17.4028 26.2161 17.6996 25.5977 18.2796 25.3923C18.8595 25.1869 19.503 25.4722 19.7167 26.0295C19.8582 26.3985 20.1023 26.7231 20.4223 26.9681C20.7423 27.2131 21.1261 27.3691 21.532 27.4192C21.9378 27.4692 22.3502 27.4114 22.7242 27.252C23.0983 27.0927 23.4197 26.8378 23.6536 26.5151C23.8875 26.1925 24.0248 25.8144 24.0508 25.422C24.0767 25.0295 23.9902 24.6378 23.8007 24.2893C23.6112 23.9408 23.3259 23.6489 22.9758 23.4453C22.6258 23.2417 22.2243 23.1343 21.8152 23.1346L6.14602 23.1346C5.52792 23.1346 5.02686 22.653 5.02686 22.059C5.02686 21.4651 5.52792 20.9835 6.14602 20.9835H21.8138Z" fill="black"/>
<path fill-rule="evenodd" clip-rule="evenodd" d="M18.2476 8.26196C17.8736 8.10257 17.4612 8.04477 17.0554 8.09483C16.6495 8.14489 16.2657 8.30089 15.9457 8.5459C15.6257 8.7909 15.3816 9.11552 15.2401 9.48447C15.0264 10.0418 14.3829 10.3271 13.803 10.1217C13.223 9.91625 12.9262 9.29791 13.1399 8.74056C13.4229 8.00266 13.911 7.35342 14.5511 6.86342C15.1911 6.37341 15.9587 6.0614 16.7704 5.96128C17.5821 5.86116 18.4068 5.97677 19.1549 6.29554C19.903 6.61431 20.5459 7.12405 21.0136 7.76936C21.4814 8.41466 21.7561 9.17083 21.808 9.95568C21.8598 10.7405 21.6869 11.524 21.3078 12.221C20.9288 12.918 20.3582 13.5018 19.6581 13.909C18.9582 14.316 18.1557 14.5309 17.3377 14.5305H3.90774C3.28964 14.5305 2.78857 14.0489 2.78857 13.455C2.78857 12.861 3.28964 12.3794 3.90774 12.3794H17.3377C17.7468 12.3797 18.1492 12.2723 18.4992 12.0687C18.8493 11.8651 19.1346 11.5732 19.3241 11.2247C19.5136 10.8762 19.6001 10.4845 19.5742 10.092C19.5482 9.6996 19.4109 9.32152 19.177 8.99887C18.9431 8.67622 18.6217 8.42135 18.2476 8.26196Z" fill="black"/>
<path fill-rule="evenodd" clip-rule="evenodd" d="M30.5584 12.564C30.1843 12.4046 29.772 12.3468 29.3661 12.3968C28.9603 12.4469 28.5765 12.6029 28.2565 12.8479C27.9364 13.0929 27.6924 13.4175 27.5509 13.7865C27.3371 14.3438 26.6937 14.6291 26.1137 14.4237C25.5338 14.2183 25.2369 13.5999 25.4507 13.0426C25.7337 12.3047 26.2217 11.6554 26.8618 11.1654C27.5019 10.6754 28.2695 10.3634 29.0812 10.2633C29.8929 10.1632 30.7176 10.2788 31.4657 10.5975C32.2138 10.9163 32.8566 11.4261 33.3244 12.0714C33.7921 12.7167 34.0669 13.4728 34.1187 14.2577C34.1706 15.0425 33.9976 15.826 33.6186 16.523C33.2395 17.22 32.669 17.8038 31.9688 18.211C31.2689 18.618 30.4664 18.833 29.6483 18.8325C29.648 18.8325 29.6485 18.8325 29.6483 18.8325H5.02688C4.40878 18.8325 3.90771 18.3509 3.90771 17.757C3.90771 17.163 4.40878 16.6814 5.02688 16.6814H29.6484C30.0576 16.6817 30.4599 16.5743 30.81 16.3707C31.16 16.1671 31.4453 15.8752 31.6348 15.5267C31.8244 15.1782 31.9108 14.7865 31.8849 14.394C31.859 14.0016 31.7216 13.6235 31.4877 13.3009C31.2539 12.9782 30.9324 12.7233 30.5584 12.564Z" fill="black"/>
</svg>
